<svg xmlns="http://www.w3.org/2000/svg" xmlns:xlink="http://www.w3.org/1999/xlink" width="800" viewBox="0 0 600 374.999991" height="500" preserveAspectRatio="xMidYMid meet"><defs><g></g><clipPath id="22613fff33"><path d="M 99 211 L 215 211 L 215 303 L 99 303 Z M 99 211 " clip-rule="nonzero"></path></clipPath><clipPath id="256ec7a3cf"><path d="M 91.808594 223.664062 L 193.972656 194.742188 L 221.53125 292.097656 L 119.367188 321.019531 Z M 91.808594 223.664062 " clip-rule="nonzero"></path></clipPath><clipPath id="c79bf3091b"><path d="M 91.808594 223.664062 L 193.972656 194.742188 L 221.53125 292.097656 L 119.367188 321.019531 Z M 91.808594 223.664062 " clip-rule="nonzero"></path></clipPath><clipPath id="77ef05e37c"><path d="M 91.820312 223.660156 L 194.429688 194.613281 L 221.980469 291.929688 L 119.367188 320.976562 Z M 91.820312 223.660156 " clip-rule="nonzero"></path></clipPath><clipPath id="eda767c5d4"><path d="M 135 212 L 210 212 L 210 267 L 135 267 Z M 135 212 " clip-rule="nonzero"></path></clipPath><clipPath id="3f34bee97f"><path d="M 91.808594 223.664062 L 193.972656 194.742188 L 221.53125 292.097656 L 119.367188 321.019531 Z M 91.808594 223.664062 " clip-rule="nonzero"></path></clipPath><clipPath id="5727750066"><path d="M 91.808594 223.664062 L 193.972656 194.742188 L 221.53125 292.097656 L 119.367188 321.019531 Z M 91.808594 223.664062 " clip-rule="nonzero"></path></clipPath></defs><g fill="#000000" fill-opacity="1"><g transform="translate(69.981093, 199.018622)"><g><path d="M 2.578125 -80.4375 C 2.535156 -86.59375 4.148438 -92.28125 7.421875 -97.5 C 10.703125 -102.726562 15.160156 -106.953125 20.796875 -110.171875 C 26.441406 -113.398438 32.789062 -115.03125 39.84375 -115.0625 C 43.976562 -115.082031 47.671875 -114.457031 50.921875 -113.1875 C 54.171875 -111.914062 57.113281 -110.421875 59.75 -108.703125 C 62.394531 -106.984375 64.835938 -105.484375 67.078125 -104.203125 C 69.328125 -102.929688 71.460938 -102.300781 73.484375 -102.3125 C 77.734375 -102.332031 80.46875 -103.4375 81.6875 -105.625 C 82.90625 -107.820312 83.503906 -110.769531 83.484375 -114.46875 L 87.34375 -114.484375 C 87.925781 -109.890625 88.003906 -105.15625 87.578125 -100.28125 C 87.160156 -95.414062 85.957031 -90.90625 83.96875 -86.75 C 81.976562 -82.601562 79.03125 -79.234375 75.125 -76.640625 C 71.21875 -74.046875 66.128906 -72.726562 59.859375 -72.6875 C 55.722656 -72.664062 52.054688 -73.570312 48.859375 -75.40625 C 45.660156 -77.238281 42.765625 -79.515625 40.171875 -82.234375 C 37.585938 -84.960938 35.253906 -87.75 33.171875 -90.59375 C 31.085938 -93.4375 29.054688 -95.890625 27.078125 -97.953125 C 25.109375 -100.015625 23.085938 -101.265625 21.015625 -101.703125 C 18.941406 -102.140625 16.679688 -101.335938 14.234375 -99.296875 C 11.554688 -97.046875 11.148438 -94.273438 13.015625 -90.984375 C 14.878906 -87.691406 18.785156 -84.351562 24.734375 -80.96875 C 30.679688 -77.59375 38.367188 -74.585938 47.796875 -71.953125 C 51.378906 -70.960938 55.609375 -69.554688 60.484375 -67.734375 C 65.359375 -65.921875 70.15625 -63.539062 74.875 -60.59375 C 79.59375 -57.65625 83.53125 -54.066406 86.6875 -49.828125 C 89.851562 -45.597656 91.453125 -40.570312 91.484375 -34.75 C 91.515625 -28.476562 89.863281 -22.648438 86.53125 -17.265625 C 83.207031 -11.878906 78.695312 -7.519531 73 -4.1875 C 67.3125 -0.851562 60.832031 0.832031 53.5625 0.875 C 49.414062 0.894531 45.601562 0.242188 42.125 -1.078125 C 38.65625 -2.398438 35.457031 -3.890625 32.53125 -5.546875 C 29.613281 -7.210938 26.921875 -8.707031 24.453125 -10.03125 C 21.984375 -11.363281 19.6875 -12.023438 17.5625 -12.015625 C 13.425781 -11.992188 10.71875 -10.890625 9.4375 -8.703125 C 8.164062 -6.515625 7.539062 -3.570312 7.5625 0.125 L 3.859375 0.15625 C 3.171875 -4.4375 3.0625 -9.171875 3.53125 -14.046875 C 4 -18.921875 5.226562 -23.429688 7.21875 -27.578125 C 9.21875 -31.734375 12.164062 -35.109375 16.0625 -37.703125 C 19.96875 -40.296875 25 -41.609375 31.15625 -41.640625 C 35.300781 -41.660156 39.054688 -40.753906 42.421875 -38.921875 C 45.796875 -37.097656 48.859375 -34.796875 51.609375 -32.015625 C 54.367188 -29.234375 56.929688 -26.421875 59.296875 -23.578125 C 61.660156 -20.734375 63.910156 -18.28125 66.046875 -16.21875 C 68.191406 -14.164062 70.328125 -12.921875 72.453125 -12.484375 C 74.585938 -12.054688 76.828125 -12.851562 79.171875 -14.875 C 81.847656 -17.238281 81.96875 -20.148438 79.53125 -23.609375 C 77.101562 -27.066406 72.71875 -30.566406 66.375 -34.109375 C 60.03125 -37.660156 52.097656 -40.804688 42.578125 -43.546875 C 34.953125 -45.742188 28.109375 -48.28125 22.046875 -51.15625 C 15.984375 -54.039062 11.234375 -57.796875 7.796875 -62.421875 C 4.359375 -67.046875 2.617188 -73.050781 2.578125 -80.4375 Z M 2.578125 -80.4375 "></path></g></g></g><g fill="#000000" fill-opacity="1"><g transform="translate(164.661176, 198.496883)"><g><path d="M 60.609375 -92.34375 C 70.234375 -92.394531 78.273438 -90.445312 84.734375 -86.5 C 91.191406 -82.5625 95.804688 -77.1875 98.578125 -70.375 C 101.359375 -63.5625 102.050781 -55.789062 100.65625 -47.0625 C 99.5625 -40.34375 99.082031 -34.628906 99.21875 -29.921875 C 99.363281 -25.222656 101.066406 -21.429688 104.328125 -18.546875 C 106.578125 -16.648438 109.015625 -15.960938 111.640625 -16.484375 C 114.265625 -17.003906 116.914062 -18.613281 119.59375 -21.3125 L 122.125 -18.640625 C 119.789062 -15.492188 116.785156 -12.566406 113.109375 -9.859375 C 109.429688 -7.148438 105.441406 -4.882812 101.140625 -3.0625 C 96.835938 -1.25 92.472656 -0.195312 88.046875 0.09375 C 83.628906 0.394531 79.488281 -0.28125 75.625 -1.9375 C 71.757812 -3.59375 68.523438 -6.476562 65.921875 -10.59375 C 65.492188 -7.46875 63.910156 -4.859375 61.171875 -2.765625 C 58.441406 -0.679688 53.550781 0.378906 46.5 0.421875 C 31.613281 0.492188 20.628906 -1.738281 13.546875 -6.28125 C 6.472656 -10.832031 2.914062 -17.414062 2.875 -26.03125 C 2.769531 -43.832031 18.28125 -52.820312 49.40625 -53 C 51.976562 -53.007812 54.46875 -52.960938 56.875 -52.859375 C 59.289062 -52.753906 61.5625 -52.601562 63.6875 -52.40625 C 64.96875 -62.59375 65.285156 -70.34375 64.640625 -75.65625 C 64.003906 -80.976562 62.585938 -84.46875 60.390625 -86.125 C 58.203125 -87.789062 55.316406 -88.109375 51.734375 -87.078125 C 49.503906 -86.398438 47.890625 -84.878906 46.890625 -82.515625 C 45.890625 -80.160156 45.0625 -77.414062 44.40625 -74.28125 C 43.757812 -71.144531 42.882812 -68.0625 41.78125 -65.03125 C 40.6875 -62 38.992188 -59.472656 36.703125 -57.453125 C 34.421875 -55.429688 31.097656 -54.410156 26.734375 -54.390625 C 21.921875 -54.359375 18 -55.453125 14.96875 -57.671875 C 11.9375 -59.890625 9.84375 -63.65625 8.6875 -68.96875 C 7.539062 -74.28125 7.441406 -81.582031 8.390625 -90.875 L 12.765625 -90.90625 C 12.785156 -87.769531 13.332031 -85.171875 14.40625 -83.109375 C 15.476562 -81.046875 17.414062 -80.019531 20.21875 -80.03125 C 22.90625 -80.050781 25.613281 -80.679688 28.34375 -81.921875 C 31.082031 -83.171875 34.015625 -84.585938 37.140625 -86.171875 C 40.265625 -87.753906 43.753906 -89.171875 47.609375 -90.421875 C 51.460938 -91.671875 55.796875 -92.3125 60.609375 -92.34375 Z M 61.453125 -29.71875 C 61.546875 -32.632812 61.753906 -35.601562 62.078125 -38.625 C 62.398438 -41.644531 62.773438 -44.722656 63.203125 -47.859375 L 63.203125 -48.53125 C 58.835938 -49.070312 54.722656 -49.273438 50.859375 -49.140625 C 46.992188 -49.003906 43.890625 -48.316406 41.546875 -47.078125 C 38.304688 -45.484375 36.472656 -42.503906 36.046875 -38.140625 C 35.628906 -33.773438 36.613281 -28.691406 39 -22.890625 C 42.0625 -15.285156 45.332031 -10.175781 48.8125 -7.5625 C 52.300781 -4.957031 55.660156 -4.445312 58.890625 -6.03125 C 60.234375 -6.707031 61.066406 -8.28125 61.390625 -10.75 C 61.710938 -13.21875 61.804688 -16.15625 61.671875 -19.5625 C 61.535156 -22.976562 61.460938 -26.363281 61.453125 -29.71875 Z M 61.453125 -29.71875 "></path></g></g></g><g fill="#000000" fill-opacity="1"><g transform="translate(269.245738, 197.920564)"><g><path d="M 37.90625 -68.875 C 46.414062 -66.800781 53.8125 -64.1875 60.09375 -61.03125 C 66.382812 -57.875 71.191406 -53.894531 74.515625 -49.09375 C 77.847656 -44.300781 79.421875 -38.320312 79.234375 -31.15625 C 79.160156 -25.789062 78.15625 -20.664062 76.21875 -15.78125 C 74.289062 -10.90625 71.207031 -6.914062 66.96875 -3.8125 C 62.726562 -0.707031 57.082031 0.859375 50.03125 0.890625 C 46.226562 0.910156 42.976562 0.367188 40.28125 -0.734375 C 37.59375 -1.835938 35.15625 -3.078125 32.96875 -4.453125 C 30.78125 -5.835938 28.59375 -7.082031 26.40625 -8.1875 C 24.21875 -9.300781 21.664062 -9.851562 18.75 -9.84375 C 11.8125 -9.800781 8.359375 -6.535156 8.390625 -0.046875 L 4.203125 -0.015625 C 4.191406 -2.023438 4.3125 -4.769531 4.5625 -8.25 C 4.820312 -11.726562 5.5 -15.257812 6.59375 -18.84375 C 7.695312 -22.425781 9.472656 -25.425781 11.921875 -27.84375 C 14.378906 -30.269531 17.847656 -31.492188 22.328125 -31.515625 C 26.691406 -31.535156 30.273438 -30.601562 33.078125 -28.71875 C 35.890625 -26.832031 38.253906 -24.46875 40.171875 -21.625 C 42.085938 -18.78125 43.78125 -15.960938 45.25 -13.171875 C 46.726562 -10.390625 48.28125 -8.101562 49.90625 -6.3125 C 51.539062 -4.53125 53.535156 -3.757812 55.890625 -4 C 58.015625 -4.238281 59.800781 -5.28125 61.25 -7.125 C 62.695312 -8.976562 63.070312 -11.363281 62.375 -14.28125 C 61.914062 -16.40625 60.8125 -18.550781 59.0625 -20.71875 C 57.320312 -22.894531 54.628906 -24.921875 50.984375 -26.796875 C 47.335938 -28.679688 42.375 -30.171875 36.09375 -31.265625 C 30.832031 -32.242188 25.703125 -34.085938 20.703125 -36.796875 C 15.710938 -39.515625 11.550781 -43.101562 8.21875 -47.5625 C 4.894531 -52.019531 3.101562 -57.4375 2.84375 -63.8125 C 2.695312 -68.625 3.726562 -73.1875 5.9375 -77.5 C 8.15625 -81.820312 11.160156 -85.335938 14.953125 -88.046875 C 18.753906 -90.753906 22.894531 -92.125 27.375 -92.15625 C 31.175781 -92.175781 34.503906 -91.742188 37.359375 -90.859375 C 40.222656 -89.984375 42.859375 -88.988281 45.265625 -87.875 C 47.679688 -86.769531 50.09375 -85.78125 52.5 -84.90625 C 54.914062 -84.03125 57.578125 -83.597656 60.484375 -83.609375 C 63.734375 -83.628906 66.523438 -84.289062 68.859375 -85.59375 C 71.203125 -86.894531 72.367188 -88.773438 72.359375 -91.234375 L 76.734375 -91.25 C 76.742188 -89.238281 76.503906 -86.75 76.015625 -83.78125 C 75.523438 -80.8125 74.644531 -77.894531 73.375 -75.03125 C 72.101562 -72.164062 70.320312 -69.75 68.03125 -67.78125 C 65.75 -65.8125 62.816406 -64.816406 59.234375 -64.796875 C 56.554688 -64.785156 54.125 -65.554688 51.9375 -67.109375 C 49.75 -68.660156 47.664062 -70.601562 45.6875 -72.9375 C 43.707031 -75.28125 41.757812 -77.59375 39.84375 -79.875 C 37.9375 -82.164062 35.96875 -84.085938 33.9375 -85.640625 C 31.914062 -87.203125 29.734375 -87.976562 27.390625 -87.96875 C 24.921875 -87.957031 22.960938 -87.242188 21.515625 -85.828125 C 20.078125 -84.421875 19.53125 -82.679688 19.875 -80.609375 C 20.21875 -78.535156 21.796875 -76.441406 24.609375 -74.328125 C 27.421875 -72.222656 31.851562 -70.40625 37.90625 -68.875 Z M 37.90625 -68.875 "></path></g></g></g><g fill="#000000" fill-opacity="1"><g transform="translate(351.671127, 197.466354)"><g><path d="M 37.90625 -68.875 C 46.414062 -66.800781 53.8125 -64.1875 60.09375 -61.03125 C 66.382812 -57.875 71.191406 -53.894531 74.515625 -49.09375 C 77.847656 -44.300781 79.421875 -38.320312 79.234375 -31.15625 C 79.160156 -25.789062 78.15625 -20.664062 76.21875 -15.78125 C 74.289062 -10.90625 71.207031 -6.914062 66.96875 -3.8125 C 62.726562 -0.707031 57.082031 0.859375 50.03125 0.890625 C 46.226562 0.910156 42.976562 0.367188 40.28125 -0.734375 C 37.59375 -1.835938 35.15625 -3.078125 32.96875 -4.453125 C 30.78125 -5.835938 28.59375 -7.082031 26.40625 -8.1875 C 24.21875 -9.300781 21.664062 -9.851562 18.75 -9.84375 C 11.8125 -9.800781 8.359375 -6.535156 8.390625 -0.046875 L 4.203125 -0.015625 C 4.191406 -2.023438 4.3125 -4.769531 4.5625 -8.25 C 4.820312 -11.726562 5.5 -15.257812 6.59375 -18.84375 C 7.695312 -22.425781 9.472656 -25.425781 11.921875 -27.84375 C 14.378906 -30.269531 17.847656 -31.492188 22.328125 -31.515625 C 26.691406 -31.535156 30.273438 -30.601562 33.078125 -28.71875 C 35.890625 -26.832031 38.253906 -24.46875 40.171875 -21.625 C 42.085938 -18.78125 43.78125 -15.960938 45.25 -13.171875 C 46.726562 -10.390625 48.28125 -8.101562 49.90625 -6.3125 C 51.539062 -4.53125 53.535156 -3.757812 55.890625 -4 C 58.015625 -4.238281 59.800781 -5.28125 61.25 -7.125 C 62.695312 -8.976562 63.070312 -11.363281 62.375 -14.28125 C 61.914062 -16.40625 60.8125 -18.550781 59.0625 -20.71875 C 57.320312 -22.894531 54.628906 -24.921875 50.984375 -26.796875 C 47.335938 -28.679688 42.375 -30.171875 36.09375 -31.265625 C 30.832031 -32.242188 25.703125 -34.085938 20.703125 -36.796875 C 15.710938 -39.515625 11.550781 -43.101562 8.21875 -47.5625 C 4.894531 -52.019531 3.101562 -57.4375 2.84375 -63.8125 C 2.695312 -68.625 3.726562 -73.1875 5.9375 -77.5 C 8.15625 -81.820312 11.160156 -85.335938 14.953125 -88.046875 C 18.753906 -90.753906 22.894531 -92.125 27.375 -92.15625 C 31.175781 -92.175781 34.503906 -91.742188 37.359375 -90.859375 C 40.222656 -89.984375 42.859375 -88.988281 45.265625 -87.875 C 47.679688 -86.769531 50.09375 -85.78125 52.5 -84.90625 C 54.914062 -84.03125 57.578125 -83.597656 60.484375 -83.609375 C 63.734375 -83.628906 66.523438 -84.289062 68.859375 -85.59375 C 71.203125 -86.894531 72.367188 -88.773438 72.359375 -91.234375 L 76.734375 -91.25 C 76.742188 -89.238281 76.503906 -86.75 76.015625 -83.78125 C 75.523438 -80.8125 74.644531 -77.894531 73.375 -75.03125 C 72.101562 -72.164062 70.320312 -69.75 68.03125 -67.78125 C 65.75 -65.8125 62.816406 -64.816406 59.234375 -64.796875 C 56.554688 -64.785156 54.125 -65.554688 51.9375 -67.109375 C 49.75 -68.660156 47.664062 -70.601562 45.6875 -72.9375 C 43.707031 -75.28125 41.757812 -77.59375 39.84375 -79.875 C 37.9375 -82.164062 35.96875 -84.085938 33.9375 -85.640625 C 31.914062 -87.203125 29.734375 -87.976562 27.390625 -87.96875 C 24.921875 -87.957031 22.960938 -87.242188 21.515625 -85.828125 C 20.078125 -84.421875 19.53125 -82.679688 19.875 -80.609375 C 20.21875 -78.535156 21.796875 -76.441406 24.609375 -74.328125 C 27.421875 -72.222656 31.851562 -70.40625 37.90625 -68.875 Z M 37.90625 -68.875 "></path></g></g></g><g fill="#000000" fill-opacity="1"><g transform="translate(434.096515, 197.012144)"><g><path d="M 50.5 -5.3125 C 55.3125 -5.675781 58.992188 -7.65625 61.546875 -11.25 C 64.109375 -14.84375 65.707031 -19.492188 66.34375 -25.203125 C 66.976562 -30.921875 66.800781 -37.078125 65.8125 -43.671875 C 64.832031 -50.273438 63.148438 -56.757812 60.765625 -63.125 C 58.378906 -69.488281 55.4375 -75.148438 51.9375 -80.109375 C 48.4375 -85.078125 44.5 -88.722656 40.125 -91.046875 L 88.8125 -91.3125 C 91.070312 -87.632812 92.359375 -83.023438 92.671875 -77.484375 C 92.984375 -71.953125 92.707031 -66.046875 91.84375 -59.765625 C 90.976562 -53.492188 89.890625 -47.445312 88.578125 -41.625 C 87.273438 -35.800781 86.019531 -30.867188 84.8125 -26.828125 C 82.394531 -18.304688 79.414062 -9.753906 75.875 -1.171875 C 72.34375 7.410156 68.300781 15.210938 63.75 22.234375 C 59.207031 29.253906 54.203125 34.90625 48.734375 39.1875 C 43.273438 43.46875 37.410156 45.625 31.140625 45.65625 C 27.003906 45.675781 23.5625 45.023438 20.8125 43.703125 C 18.0625 42.378906 15.726562 40.851562 13.8125 39.125 C 11.90625 37.394531 10.101562 35.863281 8.40625 34.53125 C 6.71875 33.207031 4.8125 32.550781 2.6875 32.5625 C -1.113281 32.582031 -3.535156 33.65625 -4.578125 35.78125 C -5.628906 37.914062 -6.144531 40.828125 -6.125 44.515625 L -9.828125 44.546875 C -10.523438 39.960938 -10.609375 35.257812 -10.078125 30.4375 C -9.546875 25.625 -8.335938 21.140625 -6.453125 16.984375 C -4.566406 12.835938 -1.84375 9.46875 1.71875 6.875 C 5.28125 4.28125 9.804688 2.96875 15.296875 2.9375 C 19.546875 2.90625 23.097656 3.550781 25.953125 4.875 C 28.816406 6.207031 31.265625 7.875 33.296875 9.875 C 35.328125 11.882812 37.128906 13.894531 38.703125 15.90625 C 40.285156 17.914062 41.914062 19.585938 43.59375 20.921875 C 45.28125 22.253906 47.300781 22.914062 49.65625 22.90625 C 55.8125 22.863281 60.492188 19.726562 63.703125 13.5 C 66.921875 7.269531 68.722656 -0.765625 69.109375 -10.609375 C 65.660156 -7.242188 61.785156 -4.566406 57.484375 -2.578125 C 53.179688 -0.597656 48.570312 0.40625 43.65625 0.4375 C 33.914062 0.488281 25.816406 -1.453125 19.359375 -5.390625 C 12.898438 -9.328125 8.335938 -14.734375 5.671875 -21.609375 C 3.003906 -28.484375 2.316406 -36.285156 3.609375 -45.015625 C 4.585938 -51.734375 5.035156 -57.472656 4.953125 -62.234375 C 4.867188 -66.992188 3.191406 -70.757812 -0.078125 -73.53125 C -2.316406 -75.425781 -4.773438 -76.085938 -7.453125 -75.515625 C -10.140625 -74.941406 -12.765625 -73.359375 -15.328125 -70.765625 L -18.03125 -73.4375 C -15.144531 -77.144531 -11.382812 -80.578125 -6.75 -83.734375 C -2.125 -86.898438 2.835938 -89.253906 8.140625 -90.796875 C 13.453125 -92.335938 18.628906 -92.644531 23.671875 -91.71875 C 28.710938 -90.789062 33.039062 -88.097656 36.65625 -83.640625 C 39.351562 -80.304688 41.101562 -76.507812 41.90625 -72.25 C 42.71875 -68 42.96875 -63.492188 42.65625 -58.734375 C 42.34375 -53.984375 41.804688 -49.144531 41.046875 -44.21875 C 39.753906 -35.59375 39.148438 -28.648438 39.234375 -23.390625 C 39.328125 -18.128906 39.878906 -14.1875 40.890625 -11.5625 C 41.910156 -8.9375 43.265625 -7.207031 44.953125 -6.375 C 46.640625 -5.550781 48.488281 -5.195312 50.5 -5.3125 Z M 50.5 -5.3125 "></path></g></g></g><g clip-path="url(#22613fff33)"><g clip-path="url(#256ec7a3cf)"><g clip-path="url(#c79bf3091b)"><g clip-path="url(#77ef05e37c)"><path fill="#000000" d="M 133.246094 211.933594 C 132.671875 212.988281 132.097656 214.046875 131.523438 215.101562 C 130.410156 217.148438 130.015625 219.25 127.605469 220.148438 C 125.207031 221.046875 122.34375 221.007812 119.820312 221.304688 C 117.816406 221.535156 114.722656 222.132812 112.894531 220.953125 C 112.894531 220.953125 117.71875 224.0625 128.308594 221.824219 C 128.308594 221.824219 130.941406 227.90625 110.996094 227.636719 C 110.996094 227.636719 122.617188 230.109375 128.292969 228.199219 C 128.292969 228.199219 125.550781 235.648438 104.714844 238.667969 C 104.714844 238.667969 116.601562 238.335938 126.894531 234.511719 C 126.894531 234.511719 120.515625 244.660156 101.109375 244.691406 C 101.109375 244.691406 115.140625 246.027344 127.5625 240.085938 C 127.5625 240.085938 121.582031 251.636719 99.132812 249.5 C 99.132812 249.5 114.941406 253.367188 131.546875 242.902344 C 131.546875 242.902344 116.171875 257.71875 100.566406 254.554688 C 100.566406 254.554688 117.8125 259.226562 132.941406 245.691406 C 132.941406 245.691406 119.683594 264.765625 103.109375 263.539062 C 103.109375 263.539062 117.296875 266.503906 135.359375 249.40625 C 135.359375 249.40625 123.851562 269.804688 104.300781 267.753906 C 104.300781 267.753906 121.148438 272.085938 138.296875 253.882812 C 138.296875 253.882812 131.386719 274.496094 108.054688 274.578125 C 108.054688 274.578125 127.472656 277.273438 142.617188 257.363281 C 142.617188 257.363281 138.253906 278.921875 110.324219 280.457031 C 110.324219 280.457031 136.339844 282.347656 146.515625 261.492188 C 146.515625 261.492188 141.917969 280.617188 120.320312 284.152344 C 120.320312 284.152344 141.492188 282.859375 149.996094 264.679688 C 149.996094 264.679688 150.167969 284.042969 128.066406 288.480469 C 128.066406 288.480469 149.921875 286.390625 154.199219 267.734375 C 154.199219 267.734375 156.0625 284.5 138.40625 290.710938 C 138.40625 290.710938 155.496094 286.785156 158.660156 271.175781 C 158.660156 271.175781 160.816406 283.609375 147.464844 291.636719 C 147.464844 291.636719 159.246094 286.632812 163.066406 272.808594 C 163.066406 272.808594 164.476562 286.363281 151.140625 296.054688 C 151.140625 296.054688 164.128906 288.890625 167.242188 274.964844 C 167.242188 274.964844 165.675781 288.453125 154.742188 299.128906 C 154.742188 299.128906 169.25 286.074219 171.421875 274.996094 C 171.421875 274.996094 170.605469 288.726562 160.757812 298.945312 C 160.757812 298.945312 172.390625 289.128906 175.132812 274.703125 C 175.132812 274.703125 170.734375 293.996094 166.050781 299.417969 C 166.050781 299.417969 175.738281 288.636719 177.511719 277.214844 C 177.511719 277.214844 178.316406 291.851562 170.875 301.996094 C 170.875 301.996094 180.722656 291.777344 181.058594 277.421875 C 181.058594 277.421875 185.628906 293.574219 176.125 302.332031 C 176.125 302.332031 189.257812 294.0625 184.847656 277.414062 C 184.847656 277.414062 190.035156 287.167969 183.835938 297.417969 C 183.835938 297.417969 190.46875 289.777344 187.734375 277.960938 C 187.734375 277.960938 191.621094 286.871094 188.988281 297.929688 C 188.988281 297.929688 193.363281 287.136719 191.660156 277.910156 C 191.660156 277.910156 196.046875 289.109375 195.890625 295.523438 C 195.890625 295.523438 197.457031 285.523438 195.230469 277.660156 C 195.230469 277.660156 202.589844 285.433594 197.304688 298.914062 C 197.304688 298.914062 203.800781 290.25 199.921875 277.089844 C 199.921875 277.089844 204.621094 282.433594 202.207031 294.796875 C 202.207031 294.796875 205.917969 285.402344 203.054688 276.355469 C 203.054688 276.355469 207.96875 282.394531 206.71875 289.273438 C 206.71875 289.273438 208.851562 281.84375 205.582031 274.578125 C 205.582031 274.578125 210.261719 280.382812 209.785156 285.671875 C 209.785156 285.671875 211.089844 277.417969 207.851562 273.480469 C 207.851562 273.480469 211.054688 275.152344 211.164062 279.824219 C 211.164062 279.824219 212.011719 274.730469 209.304688 272.160156 C 209.003906 271.871094 210.246094 269.296875 210.390625 269 C 211.308594 267.148438 212.488281 266.058594 214.539062 265.761719 C 213.980469 261.6875 207.574219 265.886719 206.089844 266.578125 C 193.5 272.472656 176.136719 267.988281 163.835938 263.019531 C 151.347656 257.976562 139.191406 249.171875 135.070312 235.761719 C 132.929688 228.785156 129.460938 218.894531 133.246094 211.933594 " fill-opacity="1" fill-rule="nonzero"></path></g></g></g></g><g clip-path="url(#eda767c5d4)"><g clip-path="url(#3f34bee97f)"><g clip-path="url(#5727750066)"><path fill="#000000" d="M 135.511719 212.132812 C 135.511719 212.132812 135.503906 212.238281 135.5 212.4375 C 135.496094 212.640625 135.496094 212.9375 135.5 213.324219 C 135.507812 213.714844 135.519531 214.191406 135.542969 214.753906 C 135.570312 215.316406 135.609375 215.960938 135.667969 216.679688 C 135.792969 218.117188 135.996094 219.859375 136.351562 221.828125 C 136.707031 223.792969 137.214844 225.992188 137.945312 228.328125 C 138.3125 229.496094 138.726562 230.699219 139.214844 231.917969 C 139.703125 233.136719 140.246094 234.378906 140.867188 235.625 C 142.105469 238.117188 143.636719 240.621094 145.472656 243.019531 C 145.703125 243.316406 145.941406 243.613281 146.175781 243.910156 C 146.414062 244.207031 146.664062 244.496094 146.90625 244.792969 C 147.152344 245.085938 147.410156 245.371094 147.660156 245.660156 C 147.917969 245.949219 148.183594 246.230469 148.445312 246.515625 C 148.710938 246.796875 148.984375 247.074219 149.257812 247.351562 C 149.390625 247.496094 149.535156 247.628906 149.675781 247.765625 C 149.816406 247.902344 149.957031 248.035156 150.097656 248.171875 C 150.234375 248.3125 150.382812 248.441406 150.523438 248.578125 C 150.667969 248.710938 150.8125 248.84375 150.957031 248.976562 C 151.03125 249.042969 151.101562 249.109375 151.175781 249.175781 L 151.398438 249.371094 C 151.546875 249.5 151.695312 249.632812 151.84375 249.761719 C 154.242188 251.828125 156.882812 253.6875 159.683594 255.292969 C 159.855469 255.398438 160.03125 255.492188 160.207031 255.589844 L 161.003906 256.03125 L 161.109375 256.089844 L 161.25 256.160156 L 161.800781 256.445312 C 162.171875 256.632812 162.539062 256.824219 162.90625 257.011719 L 163.457031 257.296875 L 163.734375 257.4375 L 164.003906 257.566406 C 164.730469 257.90625 165.457031 258.246094 166.179688 258.585938 C 166.914062 258.910156 167.65625 259.21875 168.390625 259.535156 C 168.753906 259.699219 169.128906 259.835938 169.503906 259.980469 C 169.875 260.121094 170.246094 260.265625 170.613281 260.40625 C 170.800781 260.476562 170.984375 260.550781 171.167969 260.621094 C 171.351562 260.691406 171.539062 260.75 171.726562 260.816406 C 172.097656 260.945312 172.46875 261.070312 172.839844 261.199219 C 173.578125 261.46875 174.328125 261.679688 175.066406 261.90625 C 175.25 261.960938 175.433594 262.015625 175.621094 262.074219 L 175.894531 262.15625 C 175.988281 262.1875 176.082031 262.207031 176.171875 262.234375 C 176.542969 262.332031 176.914062 262.429688 177.28125 262.527344 C 180.226562 263.296875 183.128906 263.839844 185.90625 264.160156 C 186.078125 264.183594 186.25 264.203125 186.421875 264.222656 C 186.507812 264.234375 186.597656 264.246094 186.679688 264.253906 C 186.769531 264.265625 186.855469 264.269531 186.941406 264.277344 C 187.28125 264.308594 187.625 264.335938 187.960938 264.367188 C 188.300781 264.390625 188.636719 264.429688 188.972656 264.441406 C 189.304688 264.460938 189.636719 264.476562 189.964844 264.496094 C 191.28125 264.5625 192.554688 264.570312 193.78125 264.550781 C 194.085938 264.550781 194.390625 264.535156 194.6875 264.523438 C 194.988281 264.511719 195.285156 264.5 195.578125 264.488281 C 195.652344 264.484375 195.726562 264.480469 195.796875 264.480469 C 195.871094 264.472656 195.941406 264.46875 196.015625 264.464844 C 196.160156 264.453125 196.304688 264.441406 196.445312 264.433594 C 196.734375 264.414062 197.015625 264.394531 197.292969 264.375 C 197.851562 264.324219 198.394531 264.269531 198.921875 264.214844 C 199.183594 264.183594 199.445312 264.148438 199.699219 264.117188 C 199.953125 264.082031 200.207031 264.058594 200.453125 264.019531 C 202.433594 263.734375 204.144531 263.371094 205.542969 263.023438 C 205.71875 262.976562 205.890625 262.933594 206.054688 262.890625 C 206.21875 262.847656 206.378906 262.800781 206.535156 262.757812 C 206.691406 262.714844 206.839844 262.675781 206.984375 262.632812 C 207.128906 262.589844 207.269531 262.550781 207.402344 262.507812 C 207.671875 262.429688 207.921875 262.347656 208.148438 262.277344 C 208.375 262.207031 208.578125 262.132812 208.761719 262.070312 C 209.128906 261.941406 209.410156 261.839844 209.597656 261.765625 C 209.78125 261.691406 209.878906 261.652344 209.878906 261.652344 C 209.878906 261.652344 209.789062 261.707031 209.613281 261.804688 C 209.4375 261.90625 209.175781 262.050781 208.828125 262.226562 C 208.480469 262.402344 208.046875 262.613281 207.527344 262.84375 C 207.398438 262.898438 207.261719 262.957031 207.125 263.019531 C 206.984375 263.078125 206.835938 263.140625 206.6875 263.203125 C 206.535156 263.261719 206.378906 263.324219 206.21875 263.390625 C 206.058594 263.453125 205.890625 263.515625 205.722656 263.582031 C 204.351562 264.097656 202.65625 264.644531 200.667969 265.125 C 200.167969 265.246094 199.652344 265.351562 199.121094 265.46875 C 198.585938 265.570312 198.035156 265.675781 197.46875 265.773438 C 197.1875 265.820312 196.898438 265.863281 196.605469 265.90625 C 196.460938 265.929688 196.3125 265.953125 196.167969 265.972656 C 196.09375 265.984375 196.019531 265.996094 195.945312 266.007812 C 195.871094 266.015625 195.792969 266.023438 195.71875 266.035156 C 195.421875 266.070312 195.117188 266.105469 194.808594 266.140625 C 194.503906 266.175781 194.191406 266.214844 193.875 266.238281 C 193.5625 266.265625 193.242188 266.289062 192.921875 266.316406 C 192.761719 266.332031 192.597656 266.34375 192.4375 266.355469 C 192.273438 266.363281 192.109375 266.371094 191.945312 266.378906 C 191.617188 266.394531 191.285156 266.410156 190.953125 266.425781 C 190.785156 266.429688 190.617188 266.445312 190.445312 266.445312 C 190.277344 266.445312 190.109375 266.449219 189.9375 266.449219 C 189.253906 266.457031 188.558594 266.472656 187.855469 266.441406 C 187.503906 266.429688 187.148438 266.421875 186.789062 266.410156 C 186.699219 266.40625 186.609375 266.40625 186.519531 266.402344 C 186.429688 266.394531 186.34375 266.390625 186.25 266.386719 C 186.070312 266.375 185.890625 266.363281 185.710938 266.351562 C 182.8125 266.167969 179.765625 265.742188 176.671875 265.042969 C 176.285156 264.957031 175.894531 264.867188 175.503906 264.777344 C 175.40625 264.753906 175.308594 264.734375 175.210938 264.710938 L 174.921875 264.632812 C 174.730469 264.578125 174.535156 264.523438 174.339844 264.472656 C 173.566406 264.257812 172.777344 264.054688 172.003906 263.796875 C 171.613281 263.675781 171.222656 263.550781 170.832031 263.429688 C 170.636719 263.367188 170.441406 263.304688 170.246094 263.242188 C 170.050781 263.171875 169.859375 263.101562 169.664062 263.03125 C 169.277344 262.890625 168.886719 262.75 168.496094 262.609375 C 168.109375 262.464844 167.714844 262.332031 167.332031 262.167969 C 166.945312 262.011719 166.5625 261.851562 166.175781 261.695312 C 165.789062 261.535156 165.398438 261.382812 165.015625 261.214844 C 164.246094 260.863281 163.476562 260.507812 162.703125 260.15625 L 162.414062 260.019531 L 162.136719 259.882812 L 161.582031 259.601562 C 161.214844 259.414062 160.847656 259.226562 160.476562 259.039062 L 159.921875 258.757812 L 159.785156 258.6875 L 159.726562 258.65625 L 159.621094 258.597656 L 158.78125 258.136719 C 158.597656 258.03125 158.410156 257.933594 158.226562 257.824219 C 155.273438 256.125 152.484375 254.128906 149.972656 251.890625 C 149.820312 251.746094 149.664062 251.605469 149.507812 251.464844 L 149.273438 251.253906 C 149.199219 251.183594 149.121094 251.109375 149.046875 251.039062 C 148.894531 250.894531 148.746094 250.746094 148.59375 250.601562 C 148.445312 250.457031 148.292969 250.316406 148.148438 250.164062 C 148 250.015625 147.855469 249.867188 147.710938 249.71875 C 147.566406 249.570312 147.417969 249.425781 147.277344 249.269531 C 147 248.964844 146.714844 248.664062 146.4375 248.359375 C 146.167969 248.046875 145.894531 247.742188 145.628906 247.429688 C 145.367188 247.113281 145.105469 246.800781 144.851562 246.484375 C 144.597656 246.164062 144.347656 245.847656 144.105469 245.523438 C 143.867188 245.199219 143.625 244.878906 143.394531 244.550781 C 141.535156 241.945312 140.042969 239.222656 138.882812 236.546875 C 138.308594 235.207031 137.804688 233.878906 137.382812 232.578125 C 136.960938 231.273438 136.605469 230.003906 136.320312 228.769531 C 135.742188 226.304688 135.414062 224.011719 135.238281 221.972656 C 135.066406 219.9375 135.042969 218.15625 135.085938 216.695312 C 135.109375 215.964844 135.144531 215.3125 135.191406 214.746094 C 135.234375 214.183594 135.285156 213.703125 135.332031 213.316406 C 135.378906 212.929688 135.425781 212.632812 135.457031 212.433594 C 135.488281 212.234375 135.511719 212.132812 135.511719 212.132812 " fill-opacity="1" fill-rule="nonzero"></path></g></g></g><g fill="#000000" fill-opacity="1"><g transform="translate(168.625616, 246.707679)"><g><path d="M 6.1875 -2.984375 L 16.5625 -2.984375 L 16.5625 0 L 3.203125 0 L 3.203125 -29.03125 L 6.1875 -29.03125 Z M 6.1875 -2.984375 "></path></g></g></g><g fill="#000000" fill-opacity="1"><g transform="translate(205.82183, 246.707679)"><g><path d="M 7.90625 -10.671875 L 18.453125 -10.671875 L 13.1875 -24.046875 Z M 25.921875 0 L 22.671875 0 L 19.5625 -7.90625 L 6.796875 -7.90625 L 3.671875 0 L 0.421875 0 L 13.1875 -31.046875 Z M 25.921875 0 "></path></g></g></g><g fill="#000000" fill-opacity="1"><g transform="translate(251.942993, 246.707679)"><g><path d="M 11.28125 -13.703125 C 5.351562 -15.066406 2.390625 -17.601562 2.390625 -21.3125 C 2.390625 -24.039062 3.34375 -26.085938 5.25 -27.453125 C 7.15625 -28.796875 9.390625 -29.46875 11.953125 -29.46875 C 17.617188 -29.46875 20.976562 -27.359375 22.03125 -23.140625 L 18.796875 -23.140625 C 18.222656 -25.648438 15.941406 -26.90625 11.953125 -26.90625 C 9.160156 -26.90625 7.210938 -26.078125 6.109375 -24.421875 C 5.679688 -23.796875 5.46875 -23.015625 5.46875 -22.078125 C 5.46875 -20.285156 6.4375 -18.90625 8.375 -17.9375 C 9.28125 -17.445312 11.210938 -16.820312 14.171875 -16.0625 C 17.140625 -15.289062 19.289062 -14.4375 20.625 -13.5 C 22.476562 -12.1875 23.40625 -10.347656 23.40625 -7.984375 C 23.40625 -5.054688 22.25 -2.835938 19.9375 -1.328125 C 18 -0.0664062 15.609375 0.5625 12.765625 0.5625 C 6.335938 0.5625 2.609375 -1.890625 1.578125 -6.796875 L 5.125 -6.796875 C 5.664062 -3.710938 8.210938 -2.171875 12.765625 -2.171875 C 16.015625 -2.171875 18.28125 -3.070312 19.5625 -4.875 C 20.070312 -5.582031 20.328125 -6.546875 20.328125 -7.765625 C 20.328125 -8.960938 19.859375 -9.945312 18.921875 -10.71875 C 17.578125 -11.800781 15.03125 -12.796875 11.28125 -13.703125 Z M 11.28125 -13.703125 "></path></g></g></g><g fill="#000000" fill-opacity="1"><g transform="translate(296.227917, 246.707679)"><g><path d="M 6.1875 0 L 3.203125 0 L 3.203125 -29.03125 L 6.1875 -29.03125 L 6.1875 -15.96875 L 19.390625 -15.96875 L 19.390625 -29.03125 L 22.375 -29.03125 L 22.375 0 L 19.390625 0 L 19.390625 -12.984375 L 6.1875 -12.984375 Z M 6.1875 0 "></path></g></g></g><g fill="#000000" fill-opacity="1"><g transform="translate(341.580415, 246.707679)"><g><path d="M 20.453125 0 L 3.203125 0 L 3.203125 -29.03125 L 20.453125 -29.03125 L 20.453125 -26.265625 L 6.1875 -26.265625 L 6.1875 -15.921875 L 20.03125 -15.921875 L 20.03125 -13.109375 L 6.1875 -13.109375 L 6.1875 -2.78125 L 20.453125 -2.78125 Z M 20.453125 0 "></path></g></g></g><g fill="#000000" fill-opacity="1"><g transform="translate(385.011267, 246.707679)"><g><path d="M 6.484375 -2.78125 L 22.96875 -2.78125 L 22.96875 0 L 1.0625 0 L 18.28125 -26.265625 L 1.96875 -26.265625 L 1.96875 -29.03125 L 23.703125 -29.03125 Z M 6.484375 -2.78125 "></path></g></g></g></svg>