<svg xmlns="http://www.w3.org/2000/svg" xmlns:xlink="http://www.w3.org/1999/xlink" width="800" viewBox="0 0 600 374.999991" height="500" preserveAspectRatio="xMidYMid meet"><defs><g></g><clipPath id="80524d393d"><path d="M 97 212 L 214 212 L 214 304 L 97 304 Z M 97 212 " clip-rule="nonzero"></path></clipPath><clipPath id="129bdcf019"><path d="M 90.246094 223.933594 L 193.175781 194.796875 L 220.941406 292.882812 L 118.011719 322.023438 Z M 90.246094 223.933594 " clip-rule="nonzero"></path></clipPath><clipPath id="6aa27ec7e6"><path d="M 90.246094 223.933594 L 193.175781 194.796875 L 220.941406 292.882812 L 118.011719 322.023438 Z M 90.246094 223.933594 " clip-rule="nonzero"></path></clipPath><clipPath id="38333dad0b"><path d="M 90.253906 223.929688 L 193.636719 194.667969 L 221.394531 292.714844 L 118.007812 321.980469 Z M 90.253906 223.929688 " clip-rule="nonzero"></path></clipPath><clipPath id="fc6a354842"><path d="M 133 212 L 210 212 L 210 268 L 133 268 Z M 133 212 " clip-rule="nonzero"></path></clipPath><clipPath id="eb305fdb5f"><path d="M 90.246094 223.933594 L 193.175781 194.796875 L 220.941406 292.882812 L 118.011719 322.023438 Z M 90.246094 223.933594 " clip-rule="nonzero"></path></clipPath><clipPath id="894a90500e"><path d="M 90.246094 223.933594 L 193.175781 194.796875 L 220.941406 292.882812 L 118.011719 322.023438 Z M 90.246094 223.933594 " clip-rule="nonzero"></path></clipPath></defs><g fill="#faf6f6" fill-opacity="1"><g transform="translate(68.252756, 199.10507)"><g><path d="M 2.59375 -81.03125 C 2.5625 -87.238281 4.195312 -92.972656 7.5 -98.234375 C 10.800781 -103.492188 15.285156 -107.742188 20.953125 -110.984375 C 26.628906 -114.234375 33.019531 -115.875 40.125 -115.90625 C 44.289062 -115.9375 48.015625 -115.3125 51.296875 -114.03125 C 54.578125 -112.75 57.546875 -111.242188 60.203125 -109.515625 C 62.859375 -107.785156 65.316406 -106.273438 67.578125 -104.984375 C 69.847656 -103.703125 72 -103.066406 74.03125 -103.078125 C 78.3125 -103.109375 81.0625 -104.222656 82.28125 -106.421875 C 83.507812 -108.628906 84.117188 -111.59375 84.109375 -115.3125 L 88 -115.328125 C 88.582031 -110.710938 88.660156 -105.953125 88.234375 -101.046875 C 87.816406 -96.140625 86.601562 -91.59375 84.59375 -87.40625 C 82.59375 -83.226562 79.625 -79.832031 75.6875 -77.21875 C 71.75 -74.601562 66.625 -73.273438 60.3125 -73.234375 C 56.144531 -73.210938 52.445312 -74.125 49.21875 -75.96875 C 46 -77.8125 43.082031 -80.101562 40.46875 -82.84375 C 37.863281 -85.59375 35.507812 -88.398438 33.40625 -91.265625 C 31.300781 -94.128906 29.253906 -96.597656 27.265625 -98.671875 C 25.285156 -100.753906 23.253906 -102.015625 21.171875 -102.453125 C 19.085938 -102.890625 16.8125 -102.085938 14.34375 -100.046875 C 11.644531 -97.773438 11.234375 -94.976562 13.109375 -91.65625 C 14.984375 -88.34375 18.914062 -84.984375 24.90625 -81.578125 C 30.90625 -78.171875 38.65625 -75.140625 48.15625 -72.484375 C 51.757812 -71.492188 56.019531 -70.082031 60.9375 -68.25 C 65.851562 -66.414062 70.6875 -64.015625 75.4375 -61.046875 C 80.1875 -58.085938 84.148438 -54.472656 87.328125 -50.203125 C 90.515625 -45.941406 92.125 -40.878906 92.15625 -35.015625 C 92.1875 -28.703125 90.523438 -22.828125 87.171875 -17.390625 C 83.828125 -11.960938 79.285156 -7.566406 73.546875 -4.203125 C 67.816406 -0.847656 61.285156 0.847656 53.953125 0.890625 C 49.785156 0.910156 45.945312 0.253906 42.4375 -1.078125 C 38.9375 -2.410156 35.71875 -3.914062 32.78125 -5.59375 C 29.84375 -7.269531 27.128906 -8.773438 24.640625 -10.109375 C 22.148438 -11.453125 19.835938 -12.117188 17.703125 -12.109375 C 13.523438 -12.085938 10.789062 -10.972656 9.5 -8.765625 C 8.21875 -6.554688 7.585938 -3.59375 7.609375 0.125 L 3.890625 0.15625 C 3.191406 -4.46875 3.078125 -9.234375 3.546875 -14.140625 C 4.023438 -19.054688 5.269531 -23.601562 7.28125 -27.78125 C 9.289062 -31.96875 12.257812 -35.367188 16.1875 -37.984375 C 20.125 -40.597656 25.191406 -41.921875 31.390625 -41.953125 C 35.566406 -41.972656 39.347656 -41.0625 42.734375 -39.21875 C 46.128906 -37.382812 49.21875 -35.0625 52 -32.25 C 54.78125 -29.445312 57.359375 -26.613281 59.734375 -23.75 C 62.117188 -20.882812 64.390625 -18.414062 66.546875 -16.34375 C 68.703125 -14.28125 70.851562 -13.023438 73 -12.578125 C 75.144531 -12.140625 77.394531 -12.941406 79.75 -14.984375 C 82.445312 -17.367188 82.570312 -20.300781 80.125 -23.78125 C 77.6875 -27.257812 73.269531 -30.785156 66.875 -34.359375 C 60.476562 -37.929688 52.484375 -41.101562 42.890625 -43.875 C 35.203125 -46.082031 28.304688 -48.632812 22.203125 -51.53125 C 16.097656 -54.4375 11.3125 -58.21875 7.84375 -62.875 C 4.382812 -67.539062 2.632812 -73.59375 2.59375 -81.03125 Z M 2.59375 -81.03125 "></path></g></g></g><g fill="#faf6f6" fill-opacity="1"><g transform="translate(163.644244, 198.57941)"><g><path d="M 61.046875 -93.03125 C 70.742188 -93.082031 78.847656 -91.125 85.359375 -87.15625 C 91.867188 -83.195312 96.523438 -77.785156 99.328125 -70.921875 C 102.128906 -64.054688 102.816406 -56.222656 101.390625 -47.421875 C 100.304688 -40.640625 99.832031 -34.878906 99.96875 -30.140625 C 100.101562 -25.410156 101.816406 -21.585938 105.109375 -18.671875 C 107.378906 -16.765625 109.832031 -16.070312 112.46875 -16.59375 C 115.113281 -17.125 117.785156 -18.75 120.484375 -21.46875 L 123.046875 -18.765625 C 120.679688 -15.597656 117.644531 -12.648438 113.9375 -9.921875 C 110.238281 -7.203125 106.222656 -4.925781 101.890625 -3.09375 C 97.554688 -1.269531 93.160156 -0.207031 88.703125 0.09375 C 84.253906 0.40625 80.082031 -0.269531 76.1875 -1.9375 C 72.289062 -3.613281 69.03125 -6.523438 66.40625 -10.671875 C 65.976562 -7.515625 64.382812 -4.882812 61.625 -2.78125 C 58.875 -0.6875 53.953125 0.375 46.859375 0.40625 C 31.859375 0.488281 20.789062 -1.753906 13.65625 -6.328125 C 6.53125 -10.910156 2.945312 -17.546875 2.90625 -26.234375 C 2.800781 -44.160156 18.421875 -53.210938 49.765625 -53.390625 C 52.359375 -53.398438 54.867188 -53.351562 57.296875 -53.25 C 59.722656 -53.15625 62.007812 -53.003906 64.15625 -52.796875 C 65.445312 -63.054688 65.765625 -70.863281 65.109375 -76.21875 C 64.460938 -81.570312 63.035156 -85.085938 60.828125 -86.765625 C 58.628906 -88.441406 55.726562 -88.769531 52.125 -87.75 C 49.875 -87.050781 48.242188 -85.515625 47.234375 -83.140625 C 46.234375 -80.765625 45.398438 -78 44.734375 -74.84375 C 44.078125 -71.6875 43.195312 -68.578125 42.09375 -65.515625 C 40.988281 -62.460938 39.285156 -59.914062 36.984375 -57.875 C 34.679688 -55.832031 31.332031 -54.800781 26.9375 -54.78125 C 22.082031 -54.75 18.125 -55.851562 15.0625 -58.09375 C 12.007812 -60.332031 9.90625 -64.128906 8.75 -69.484375 C 7.59375 -74.835938 7.5 -82.191406 8.46875 -91.546875 L 12.859375 -91.578125 C 12.867188 -88.421875 13.414062 -85.800781 14.5 -83.71875 C 15.59375 -81.644531 17.546875 -80.613281 20.359375 -80.625 C 23.066406 -80.644531 25.796875 -81.28125 28.546875 -82.53125 C 31.304688 -83.789062 34.257812 -85.21875 37.40625 -86.8125 C 40.5625 -88.40625 44.078125 -89.832031 47.953125 -91.09375 C 51.835938 -92.351562 56.203125 -93 61.046875 -93.03125 Z M 61.921875 -29.9375 C 62.015625 -32.875 62.222656 -35.863281 62.546875 -38.90625 C 62.867188 -41.945312 63.242188 -45.050781 63.671875 -48.21875 L 63.671875 -48.90625 C 59.273438 -49.4375 55.128906 -49.632812 51.234375 -49.5 C 47.347656 -49.363281 44.21875 -48.671875 41.84375 -47.421875 C 38.582031 -45.828125 36.738281 -42.828125 36.3125 -38.421875 C 35.894531 -34.023438 36.882812 -28.898438 39.28125 -23.046875 C 42.363281 -15.398438 45.660156 -10.257812 49.171875 -7.625 C 52.691406 -4.988281 56.082031 -4.472656 59.34375 -6.078125 C 60.6875 -6.765625 61.519531 -8.347656 61.84375 -10.828125 C 62.164062 -13.304688 62.257812 -16.265625 62.125 -19.703125 C 62 -23.148438 61.929688 -26.5625 61.921875 -29.9375 Z M 61.921875 -29.9375 "></path></g></g></g><g fill="#faf6f6" fill-opacity="1"><g transform="translate(269.014632, 197.99876)"><g><path d="M 38.1875 -69.390625 C 46.769531 -67.296875 54.222656 -64.660156 60.546875 -61.484375 C 66.878906 -58.304688 71.722656 -54.300781 75.078125 -49.46875 C 78.429688 -44.632812 80.015625 -38.609375 79.828125 -31.390625 C 79.742188 -25.972656 78.726562 -20.804688 76.78125 -15.890625 C 74.84375 -10.984375 71.738281 -6.96875 67.46875 -3.84375 C 63.195312 -0.71875 57.507812 0.863281 50.40625 0.90625 C 46.570312 0.925781 43.296875 0.378906 40.578125 -0.734375 C 37.867188 -1.847656 35.410156 -3.101562 33.203125 -4.5 C 31.003906 -5.894531 28.800781 -7.148438 26.59375 -8.265625 C 24.394531 -9.378906 21.828125 -9.929688 18.890625 -9.921875 C 11.898438 -9.878906 8.421875 -6.585938 8.453125 -0.046875 L 4.234375 -0.015625 C 4.222656 -2.046875 4.347656 -4.8125 4.609375 -8.3125 C 4.867188 -11.8125 5.550781 -15.367188 6.65625 -18.984375 C 7.757812 -22.597656 9.546875 -25.625 12.015625 -28.0625 C 14.492188 -30.5 17.988281 -31.726562 22.5 -31.75 C 26.894531 -31.769531 30.503906 -30.828125 33.328125 -28.921875 C 36.160156 -27.023438 38.539062 -24.644531 40.46875 -21.78125 C 42.40625 -18.914062 44.113281 -16.078125 45.59375 -13.265625 C 47.070312 -10.460938 48.632812 -8.160156 50.28125 -6.359375 C 51.925781 -4.566406 53.9375 -3.789062 56.3125 -4.03125 C 58.445312 -4.269531 60.242188 -5.320312 61.703125 -7.1875 C 63.160156 -9.0625 63.539062 -11.457031 62.84375 -14.375 C 62.382812 -16.519531 61.273438 -18.6875 59.515625 -20.875 C 57.753906 -23.0625 55.035156 -25.101562 51.359375 -27 C 47.679688 -28.894531 42.679688 -30.394531 36.359375 -31.5 C 31.046875 -32.476562 25.875 -34.332031 20.84375 -37.0625 C 15.820312 -39.800781 11.632812 -43.414062 8.28125 -47.90625 C 4.925781 -52.394531 3.117188 -57.851562 2.859375 -64.28125 C 2.722656 -69.132812 3.769531 -73.734375 6 -78.078125 C 8.226562 -82.429688 11.25 -85.972656 15.0625 -88.703125 C 18.882812 -91.441406 23.050781 -92.820312 27.5625 -92.84375 C 31.394531 -92.863281 34.75 -92.429688 37.625 -91.546875 C 40.507812 -90.660156 43.164062 -89.660156 45.59375 -88.546875 C 48.03125 -87.429688 50.460938 -86.425781 52.890625 -85.53125 C 55.316406 -84.644531 57.992188 -84.210938 60.921875 -84.234375 C 64.191406 -84.242188 67.007812 -84.90625 69.375 -86.21875 C 71.738281 -87.53125 72.914062 -89.425781 72.90625 -91.90625 L 77.296875 -91.921875 C 77.304688 -89.890625 77.066406 -87.378906 76.578125 -84.390625 C 76.085938 -81.410156 75.203125 -78.476562 73.921875 -75.59375 C 72.640625 -72.71875 70.847656 -70.285156 68.546875 -68.296875 C 66.242188 -66.304688 63.289062 -65.300781 59.6875 -65.28125 C 56.976562 -65.269531 54.519531 -66.046875 52.3125 -67.609375 C 50.101562 -69.171875 48.003906 -71.128906 46.015625 -73.484375 C 44.035156 -75.847656 42.078125 -78.175781 40.140625 -80.46875 C 38.210938 -82.769531 36.226562 -84.703125 34.1875 -86.265625 C 32.15625 -87.835938 29.957031 -88.617188 27.59375 -88.609375 C 25.113281 -88.597656 23.140625 -87.882812 21.671875 -86.46875 C 20.210938 -85.050781 19.660156 -83.296875 20.015625 -81.203125 C 20.367188 -79.117188 21.960938 -77.015625 24.796875 -74.890625 C 27.628906 -72.765625 32.09375 -70.929688 38.1875 -69.390625 Z M 38.1875 -69.390625 "></path></g></g></g><g fill="#faf6f6" fill-opacity="1"><g transform="translate(352.059346, 197.541138)"><g><path d="M 38.1875 -69.390625 C 46.769531 -67.296875 54.222656 -64.660156 60.546875 -61.484375 C 66.878906 -58.304688 71.722656 -54.300781 75.078125 -49.46875 C 78.429688 -44.632812 80.015625 -38.609375 79.828125 -31.390625 C 79.742188 -25.972656 78.726562 -20.804688 76.78125 -15.890625 C 74.84375 -10.984375 71.738281 -6.96875 67.46875 -3.84375 C 63.195312 -0.71875 57.507812 0.863281 50.40625 0.90625 C 46.570312 0.925781 43.296875 0.378906 40.578125 -0.734375 C 37.867188 -1.847656 35.410156 -3.101562 33.203125 -4.5 C 31.003906 -5.894531 28.800781 -7.148438 26.59375 -8.265625 C 24.394531 -9.378906 21.828125 -9.929688 18.890625 -9.921875 C 11.898438 -9.878906 8.421875 -6.585938 8.453125 -0.046875 L 4.234375 -0.015625 C 4.222656 -2.046875 4.347656 -4.8125 4.609375 -8.3125 C 4.867188 -11.8125 5.550781 -15.367188 6.65625 -18.984375 C 7.757812 -22.597656 9.546875 -25.625 12.015625 -28.0625 C 14.492188 -30.5 17.988281 -31.726562 22.5 -31.75 C 26.894531 -31.769531 30.503906 -30.828125 33.328125 -28.921875 C 36.160156 -27.023438 38.539062 -24.644531 40.46875 -21.78125 C 42.40625 -18.914062 44.113281 -16.078125 45.59375 -13.265625 C 47.070312 -10.460938 48.632812 -8.160156 50.28125 -6.359375 C 51.925781 -4.566406 53.9375 -3.789062 56.3125 -4.03125 C 58.445312 -4.269531 60.242188 -5.320312 61.703125 -7.1875 C 63.160156 -9.0625 63.539062 -11.457031 62.84375 -14.375 C 62.382812 -16.519531 61.273438 -18.6875 59.515625 -20.875 C 57.753906 -23.0625 55.035156 -25.101562 51.359375 -27 C 47.679688 -28.894531 42.679688 -30.394531 36.359375 -31.5 C 31.046875 -32.476562 25.875 -34.332031 20.84375 -37.0625 C 15.820312 -39.800781 11.632812 -43.414062 8.28125 -47.90625 C 4.925781 -52.394531 3.117188 -57.851562 2.859375 -64.28125 C 2.722656 -69.132812 3.769531 -73.734375 6 -78.078125 C 8.226562 -82.429688 11.25 -85.972656 15.0625 -88.703125 C 18.882812 -91.441406 23.050781 -92.820312 27.5625 -92.84375 C 31.394531 -92.863281 34.75 -92.429688 37.625 -91.546875 C 40.507812 -90.660156 43.164062 -89.660156 45.59375 -88.546875 C 48.03125 -87.429688 50.460938 -86.425781 52.890625 -85.53125 C 55.316406 -84.644531 57.992188 -84.210938 60.921875 -84.234375 C 64.191406 -84.242188 67.007812 -84.90625 69.375 -86.21875 C 71.738281 -87.53125 72.914062 -89.425781 72.90625 -91.90625 L 77.296875 -91.921875 C 77.304688 -89.890625 77.066406 -87.378906 76.578125 -84.390625 C 76.085938 -81.410156 75.203125 -78.476562 73.921875 -75.59375 C 72.640625 -72.71875 70.847656 -70.285156 68.546875 -68.296875 C 66.242188 -66.304688 63.289062 -65.300781 59.6875 -65.28125 C 56.976562 -65.269531 54.519531 -66.046875 52.3125 -67.609375 C 50.101562 -69.171875 48.003906 -71.128906 46.015625 -73.484375 C 44.035156 -75.847656 42.078125 -78.175781 40.140625 -80.46875 C 38.210938 -82.769531 36.226562 -84.703125 34.1875 -86.265625 C 32.15625 -87.835938 29.957031 -88.617188 27.59375 -88.609375 C 25.113281 -88.597656 23.140625 -87.882812 21.671875 -86.46875 C 20.210938 -85.050781 19.660156 -83.296875 20.015625 -81.203125 C 20.367188 -79.117188 21.960938 -77.015625 24.796875 -74.890625 C 27.628906 -72.765625 32.09375 -70.929688 38.1875 -69.390625 Z M 38.1875 -69.390625 "></path></g></g></g><g fill="#faf6f6" fill-opacity="1"><g transform="translate(435.104061, 197.083515)"><g><path d="M 50.875 -5.359375 C 55.726562 -5.722656 59.441406 -7.710938 62.015625 -11.328125 C 64.585938 -14.953125 66.195312 -19.640625 66.84375 -25.390625 C 67.488281 -31.148438 67.3125 -37.351562 66.3125 -44 C 65.320312 -50.65625 63.625 -57.1875 61.21875 -63.59375 C 58.8125 -70.007812 55.847656 -75.71875 52.328125 -80.71875 C 48.804688 -85.71875 44.84375 -89.382812 40.4375 -91.71875 L 89.484375 -92 C 91.753906 -88.289062 93.046875 -83.644531 93.359375 -78.0625 C 93.679688 -72.476562 93.40625 -66.523438 92.53125 -60.203125 C 91.65625 -53.890625 90.554688 -47.796875 89.234375 -41.921875 C 87.921875 -36.054688 86.65625 -31.09375 85.4375 -27.03125 C 83 -18.445312 80 -9.832031 76.4375 -1.1875 C 72.875 7.457031 68.800781 15.316406 64.21875 22.390625 C 59.644531 29.472656 54.601562 35.171875 49.09375 39.484375 C 43.59375 43.796875 37.6875 45.96875 31.375 46 C 27.195312 46.019531 23.722656 45.359375 20.953125 44.015625 C 18.191406 42.679688 15.847656 41.144531 13.921875 39.40625 C 11.992188 37.675781 10.179688 36.140625 8.484375 34.796875 C 6.785156 33.453125 4.863281 32.785156 2.71875 32.796875 C -1.113281 32.816406 -3.554688 33.898438 -4.609375 36.046875 C -5.671875 38.191406 -6.191406 41.128906 -6.171875 44.859375 L -9.890625 44.890625 C -10.597656 40.265625 -10.679688 35.523438 -10.140625 30.671875 C -9.609375 25.816406 -8.394531 21.296875 -6.5 17.109375 C -4.601562 12.929688 -1.859375 9.535156 1.734375 6.921875 C 5.328125 4.304688 9.882812 2.988281 15.40625 2.96875 C 19.6875 2.9375 23.269531 3.585938 26.15625 4.921875 C 29.039062 6.265625 31.503906 7.941406 33.546875 9.953125 C 35.585938 11.972656 37.398438 13.992188 38.984375 16.015625 C 40.578125 18.035156 42.222656 19.71875 43.921875 21.0625 C 45.617188 22.414062 47.648438 23.082031 50.015625 23.0625 C 56.222656 23.03125 60.945312 19.875 64.1875 13.59375 C 67.425781 7.320312 69.238281 -0.773438 69.625 -10.703125 C 66.144531 -7.304688 62.238281 -4.609375 57.90625 -2.609375 C 53.582031 -0.609375 48.9375 0.398438 43.96875 0.421875 C 34.164062 0.484375 26.007812 -1.460938 19.5 -5.421875 C 13 -9.390625 8.40625 -14.835938 5.71875 -21.765625 C 3.03125 -28.691406 2.335938 -36.550781 3.640625 -45.34375 C 4.609375 -52.125 5.050781 -57.910156 4.96875 -62.703125 C 4.894531 -67.492188 3.21875 -71.285156 -0.0625 -74.078125 C -2.332031 -75.984375 -4.816406 -76.644531 -7.515625 -76.0625 C -10.222656 -75.488281 -12.863281 -73.898438 -15.4375 -71.296875 L -18.171875 -73.984375 C -15.253906 -77.722656 -11.460938 -81.179688 -6.796875 -84.359375 C -2.140625 -87.546875 2.859375 -89.914062 8.203125 -91.46875 C 13.554688 -93.019531 18.769531 -93.328125 23.84375 -92.390625 C 28.925781 -91.460938 33.28125 -88.753906 36.90625 -84.265625 C 39.632812 -80.898438 41.40625 -77.078125 42.21875 -72.796875 C 43.039062 -68.515625 43.296875 -63.972656 42.984375 -59.171875 C 42.671875 -54.378906 42.128906 -49.503906 41.359375 -44.546875 C 40.054688 -35.859375 39.445312 -28.863281 39.53125 -23.5625 C 39.625 -18.257812 40.179688 -14.285156 41.203125 -11.640625 C 42.234375 -8.992188 43.59375 -7.253906 45.28125 -6.421875 C 46.976562 -5.585938 48.84375 -5.234375 50.875 -5.359375 Z M 50.875 -5.359375 "></path></g></g></g><g clip-path="url(#80524d393d)"><g clip-path="url(#129bdcf019)"><g clip-path="url(#6aa27ec7e6)"><g clip-path="url(#38333dad0b)"><path fill="#c47ac0" d="M 131.992188 212.117188 C 131.414062 213.179688 130.835938 214.246094 130.257812 215.308594 C 129.136719 217.371094 128.738281 219.488281 126.308594 220.394531 C 123.894531 221.300781 121.007812 221.261719 118.46875 221.558594 C 116.445312 221.792969 113.332031 222.390625 111.488281 221.207031 C 111.488281 221.207031 116.351562 224.339844 127.019531 222.082031 C 127.019531 222.082031 129.671875 228.207031 109.574219 227.9375 C 109.574219 227.9375 121.285156 230.429688 127.003906 228.503906 C 127.003906 228.503906 124.238281 236.011719 103.246094 239.050781 C 103.246094 239.050781 115.222656 238.714844 125.59375 234.863281 C 125.59375 234.863281 119.167969 245.089844 99.617188 245.121094 C 99.617188 245.121094 113.75 246.46875 126.265625 240.480469 C 126.265625 240.480469 120.242188 252.121094 97.625 249.964844 C 97.625 249.964844 113.550781 253.859375 130.28125 243.316406 C 130.28125 243.316406 114.792969 258.246094 99.066406 255.058594 C 99.066406 255.058594 116.445312 259.765625 131.6875 246.128906 C 131.6875 246.128906 118.328125 265.34375 101.628906 264.113281 C 101.628906 264.113281 115.921875 267.097656 134.121094 249.871094 C 134.121094 249.871094 122.53125 270.421875 102.832031 268.355469 C 102.832031 268.355469 119.804688 272.71875 137.078125 254.382812 C 137.078125 254.382812 130.121094 275.148438 106.609375 275.234375 C 106.609375 275.234375 126.175781 277.949219 141.433594 257.886719 C 141.433594 257.886719 137.039062 279.609375 108.898438 281.15625 C 108.898438 281.15625 135.109375 283.058594 145.363281 262.046875 C 145.363281 262.046875 140.730469 281.316406 118.96875 284.878906 C 118.96875 284.878906 140.300781 283.578125 148.867188 265.257812 C 148.867188 265.257812 149.042969 284.769531 126.773438 289.238281 C 126.773438 289.238281 148.796875 287.132812 153.101562 268.339844 C 153.101562 268.339844 154.980469 285.226562 137.191406 291.484375 C 137.191406 291.484375 154.410156 287.527344 157.597656 271.804688 C 157.597656 271.804688 159.769531 284.332031 146.320312 292.417969 C 146.320312 292.417969 158.1875 287.375 162.039062 273.449219 C 162.039062 273.449219 163.460938 287.105469 150.023438 296.871094 C 150.023438 296.871094 163.109375 289.652344 166.242188 275.621094 C 166.242188 275.621094 164.664062 289.210938 153.652344 299.96875 C 153.652344 299.96875 168.265625 286.816406 170.457031 275.652344 C 170.457031 275.652344 169.632812 289.484375 159.710938 299.78125 C 159.710938 299.78125 171.429688 289.894531 174.191406 275.359375 C 174.191406 275.359375 169.761719 294.796875 165.042969 300.257812 C 165.042969 300.257812 174.804688 289.398438 176.589844 277.886719 C 176.589844 277.886719 177.402344 292.636719 169.902344 302.855469 C 169.902344 302.855469 179.824219 292.558594 180.164062 278.097656 C 180.164062 278.097656 184.769531 294.371094 175.195312 303.191406 C 175.195312 303.191406 188.425781 294.863281 183.980469 278.089844 C 183.980469 278.089844 189.210938 287.917969 182.964844 298.242188 C 182.964844 298.242188 189.648438 290.542969 186.890625 278.640625 C 186.890625 278.640625 190.804688 287.617188 188.152344 298.761719 C 188.152344 298.761719 192.5625 287.886719 190.847656 278.589844 C 190.847656 278.589844 195.265625 289.871094 195.105469 296.332031 C 195.105469 296.332031 196.6875 286.257812 194.445312 278.335938 C 194.445312 278.335938 201.859375 286.171875 196.53125 299.75 C 196.53125 299.75 203.078125 291.019531 199.171875 277.761719 C 199.171875 277.761719 203.90625 283.144531 201.472656 295.601562 C 201.472656 295.601562 205.210938 286.136719 202.324219 277.023438 C 202.324219 277.023438 207.277344 283.109375 206.019531 290.035156 C 206.019531 290.035156 208.167969 282.550781 204.875 275.230469 C 204.875 275.230469 209.585938 281.078125 209.109375 286.410156 C 209.109375 286.410156 210.421875 278.09375 207.15625 274.125 C 207.15625 274.125 210.386719 275.808594 210.496094 280.515625 C 210.496094 280.515625 211.351562 275.382812 208.625 272.792969 C 208.320312 272.503906 209.570312 269.914062 209.71875 269.613281 C 210.644531 267.746094 211.832031 266.648438 213.894531 266.351562 C 213.332031 262.242188 206.878906 266.472656 205.386719 267.171875 C 192.699219 273.113281 175.207031 268.59375 162.8125 263.589844 C 150.230469 258.507812 137.984375 249.632812 133.832031 236.125 C 131.671875 229.09375 128.179688 219.132812 131.992188 212.117188 " fill-opacity="1" fill-rule="nonzero"></path></g></g></g></g><g clip-path="url(#fc6a354842)"><g clip-path="url(#eb305fdb5f)"><g clip-path="url(#894a90500e)"><path fill="#c47ac0" d="M 134.273438 212.316406 C 134.273438 212.316406 134.269531 212.421875 134.265625 212.625 C 134.261719 212.828125 134.261719 213.128906 134.265625 213.519531 C 134.269531 213.910156 134.28125 214.394531 134.308594 214.957031 C 134.335938 215.523438 134.375 216.171875 134.433594 216.898438 C 134.558594 218.347656 134.765625 220.101562 135.121094 222.085938 C 135.480469 224.066406 135.992188 226.28125 136.726562 228.632812 C 137.097656 229.808594 137.515625 231.023438 138.007812 232.25 C 138.496094 233.480469 139.042969 234.734375 139.671875 235.984375 C 140.921875 238.496094 142.460938 241.019531 144.308594 243.4375 C 144.542969 243.738281 144.78125 244.035156 145.019531 244.335938 C 145.261719 244.632812 145.511719 244.925781 145.753906 245.222656 C 146.003906 245.515625 146.261719 245.804688 146.515625 246.097656 C 146.773438 246.386719 147.042969 246.671875 147.304688 246.960938 C 147.574219 247.242188 147.851562 247.519531 148.125 247.804688 C 148.257812 247.945312 148.40625 248.078125 148.546875 248.21875 C 148.6875 248.355469 148.828125 248.492188 148.96875 248.628906 C 149.109375 248.769531 149.257812 248.898438 149.402344 249.035156 C 149.546875 249.167969 149.691406 249.304688 149.839844 249.4375 C 149.910156 249.503906 149.984375 249.574219 150.058594 249.640625 L 150.28125 249.835938 C 150.429688 249.96875 150.582031 250.097656 150.730469 250.230469 C 153.144531 252.3125 155.808594 254.183594 158.628906 255.800781 C 158.800781 255.90625 158.980469 256.003906 159.160156 256.101562 L 159.957031 256.546875 L 160.066406 256.605469 L 160.207031 256.675781 L 160.761719 256.964844 C 161.132812 257.152344 161.503906 257.34375 161.875 257.535156 L 162.429688 257.820312 L 162.707031 257.964844 L 162.984375 258.09375 C 163.714844 258.4375 164.445312 258.777344 165.171875 259.121094 C 165.914062 259.445312 166.664062 259.757812 167.402344 260.078125 C 167.769531 260.242188 168.148438 260.378906 168.519531 260.523438 C 168.894531 260.667969 169.269531 260.8125 169.640625 260.953125 C 169.828125 261.027344 170.015625 261.097656 170.199219 261.171875 C 170.386719 261.238281 170.574219 261.300781 170.761719 261.367188 C 171.136719 261.496094 171.511719 261.625 171.886719 261.753906 C 172.628906 262.023438 173.382812 262.238281 174.128906 262.464844 C 174.3125 262.519531 174.5 262.578125 174.683594 262.632812 L 174.964844 262.71875 C 175.054688 262.746094 175.148438 262.769531 175.242188 262.792969 C 175.617188 262.894531 175.988281 262.992188 176.359375 263.089844 C 179.328125 263.867188 182.25 264.414062 185.046875 264.738281 C 185.222656 264.757812 185.394531 264.777344 185.570312 264.800781 C 185.65625 264.8125 185.742188 264.820312 185.832031 264.832031 C 185.917969 264.839844 186.003906 264.847656 186.089844 264.855469 C 186.4375 264.886719 186.78125 264.914062 187.121094 264.945312 C 187.460938 264.96875 187.800781 265.007812 188.136719 265.019531 C 188.472656 265.039062 188.808594 265.054688 189.140625 265.074219 C 190.464844 265.144531 191.75 265.148438 192.984375 265.128906 C 193.292969 265.128906 193.597656 265.113281 193.898438 265.101562 C 194.199219 265.089844 194.5 265.078125 194.792969 265.066406 C 194.867188 265.0625 194.941406 265.0625 195.015625 265.058594 C 195.089844 265.050781 195.160156 265.046875 195.234375 265.042969 C 195.378906 265.03125 195.523438 265.019531 195.667969 265.011719 C 195.957031 264.992188 196.242188 264.972656 196.523438 264.953125 C 197.082031 264.902344 197.628906 264.84375 198.160156 264.792969 C 198.425781 264.757812 198.6875 264.726562 198.945312 264.691406 C 199.203125 264.65625 199.457031 264.632812 199.707031 264.59375 C 201.699219 264.308594 203.425781 263.941406 204.835938 263.589844 C 205.011719 263.542969 205.183594 263.5 205.351562 263.457031 C 205.515625 263.414062 205.675781 263.367188 205.832031 263.324219 C 205.988281 263.28125 206.140625 263.238281 206.285156 263.199219 C 206.433594 263.15625 206.574219 263.113281 206.707031 263.074219 C 206.980469 262.992188 207.226562 262.910156 207.457031 262.839844 C 207.6875 262.765625 207.890625 262.695312 208.078125 262.632812 C 208.445312 262.503906 208.726562 262.398438 208.917969 262.324219 C 209.105469 262.25 209.199219 262.207031 209.199219 262.207031 C 209.199219 262.207031 209.113281 262.261719 208.933594 262.363281 C 208.757812 262.464844 208.496094 262.613281 208.144531 262.789062 C 207.792969 262.964844 207.355469 263.179688 206.832031 263.410156 C 206.703125 263.464844 206.566406 263.527344 206.425781 263.585938 C 206.285156 263.644531 206.136719 263.707031 205.984375 263.769531 C 205.832031 263.832031 205.675781 263.894531 205.515625 263.960938 C 205.351562 264.023438 205.183594 264.085938 205.011719 264.152344 C 203.632812 264.675781 201.925781 265.226562 199.921875 265.710938 C 199.417969 265.828125 198.898438 265.9375 198.363281 266.054688 C 197.824219 266.15625 197.269531 266.261719 196.699219 266.363281 C 196.414062 266.40625 196.125 266.453125 195.828125 266.496094 C 195.683594 266.519531 195.535156 266.539062 195.386719 266.5625 C 195.3125 266.574219 195.238281 266.585938 195.164062 266.597656 C 195.085938 266.605469 195.011719 266.613281 194.9375 266.625 C 194.632812 266.660156 194.328125 266.695312 194.019531 266.730469 C 193.710938 266.769531 193.398438 266.808594 193.078125 266.832031 C 192.761719 266.855469 192.441406 266.882812 192.117188 266.910156 C 191.957031 266.921875 191.792969 266.9375 191.628906 266.949219 C 191.464844 266.957031 191.300781 266.964844 191.136719 266.972656 C 190.804688 266.988281 190.46875 267.003906 190.132812 267.019531 C 189.964844 267.023438 189.792969 267.035156 189.625 267.039062 C 189.453125 267.039062 189.28125 267.042969 189.109375 267.042969 C 188.421875 267.050781 187.722656 267.0625 187.011719 267.035156 C 186.65625 267.023438 186.300781 267.015625 185.941406 267.003906 C 185.847656 267 185.757812 267 185.667969 266.996094 C 185.578125 266.988281 185.488281 266.984375 185.398438 266.976562 C 185.214844 266.964844 185.035156 266.953125 184.851562 266.941406 C 181.929688 266.757812 178.863281 266.332031 175.742188 265.625 C 175.355469 265.539062 174.960938 265.449219 174.570312 265.359375 C 174.472656 265.335938 174.371094 265.316406 174.273438 265.289062 L 173.984375 265.210938 C 173.789062 265.15625 173.59375 265.105469 173.398438 265.050781 C 172.613281 264.832031 171.820312 264.632812 171.042969 264.371094 C 170.648438 264.246094 170.257812 264.125 169.863281 264 C 169.664062 263.9375 169.464844 263.875 169.269531 263.808594 C 169.074219 263.738281 168.878906 263.667969 168.683594 263.597656 C 168.292969 263.457031 167.902344 263.316406 167.507812 263.171875 C 167.117188 263.03125 166.71875 262.894531 166.335938 262.730469 C 165.945312 262.570312 165.558594 262.410156 165.167969 262.25 C 164.78125 262.089844 164.390625 261.9375 164 261.765625 C 163.226562 261.414062 162.449219 261.058594 161.671875 260.699219 L 161.378906 260.566406 L 161.101562 260.425781 L 160.542969 260.144531 C 160.171875 259.953125 159.800781 259.765625 159.429688 259.578125 L 158.871094 259.292969 L 158.730469 259.222656 L 158.671875 259.191406 L 158.566406 259.132812 L 157.722656 258.667969 C 157.535156 258.5625 157.34375 258.464844 157.160156 258.351562 C 154.1875 256.640625 151.375 254.628906 148.847656 252.371094 C 148.691406 252.230469 148.53125 252.089844 148.375 251.945312 L 148.140625 251.734375 C 148.0625 251.660156 147.988281 251.585938 147.914062 251.515625 C 147.761719 251.367188 147.609375 251.222656 147.457031 251.078125 C 147.304688 250.929688 147.152344 250.789062 147.007812 250.636719 C 146.859375 250.484375 146.714844 250.335938 146.566406 250.1875 C 146.421875 250.035156 146.269531 249.890625 146.132812 249.734375 C 145.847656 249.425781 145.5625 249.125 145.285156 248.816406 C 145.011719 248.5 144.738281 248.191406 144.46875 247.878906 C 144.207031 247.558594 143.941406 247.246094 143.683594 246.925781 C 143.433594 246.605469 143.179688 246.285156 142.933594 245.960938 C 142.695312 245.632812 142.453125 245.308594 142.21875 244.980469 C 140.34375 242.355469 138.839844 239.613281 137.671875 236.914062 C 137.09375 235.5625 136.585938 234.226562 136.160156 232.914062 C 135.738281 231.601562 135.378906 230.320312 135.089844 229.078125 C 134.511719 226.597656 134.179688 224.285156 134 222.234375 C 133.828125 220.179688 133.804688 218.386719 133.847656 216.914062 C 133.867188 216.179688 133.90625 215.523438 133.953125 214.953125 C 133.996094 214.382812 134.046875 213.902344 134.09375 213.511719 C 134.140625 213.117188 134.1875 212.820312 134.222656 212.621094 C 134.253906 212.421875 134.273438 212.316406 134.273438 212.316406 " fill-opacity="1" fill-rule="nonzero"></path></g></g></g><g fill="#faf6f6" fill-opacity="1"><g transform="translate(167.664014, 247.036637)"><g><path d="M 6.234375 -3.015625 L 16.6875 -3.015625 L 16.6875 0 L 3.21875 0 L 3.21875 -29.25 L 6.234375 -29.25 Z M 6.234375 -3.015625 "></path></g></g></g><g fill="#faf6f6" fill-opacity="1"><g transform="translate(205.129194, 247.036637)"><g><path d="M 7.953125 -10.75 L 18.578125 -10.75 L 13.296875 -24.21875 Z M 26.109375 0 L 22.84375 0 L 19.703125 -7.953125 L 6.84375 -7.953125 L 3.703125 0 L 0.4375 0 L 13.296875 -31.265625 Z M 26.109375 0 "></path></g></g></g><g fill="#faf6f6" fill-opacity="1"><g transform="translate(251.580971, 247.036637)"><g><path d="M 11.359375 -13.8125 C 5.390625 -15.1875 2.40625 -17.738281 2.40625 -21.46875 C 2.40625 -24.21875 3.367188 -26.28125 5.296875 -27.65625 C 7.210938 -29.007812 9.460938 -29.6875 12.046875 -29.6875 C 17.753906 -29.6875 21.140625 -27.5625 22.203125 -23.3125 L 18.921875 -23.3125 C 18.347656 -25.832031 16.054688 -27.09375 12.046875 -27.09375 C 9.234375 -27.09375 7.269531 -26.265625 6.15625 -24.609375 C 5.71875 -23.972656 5.5 -23.179688 5.5 -22.234375 C 5.5 -20.429688 6.476562 -19.039062 8.4375 -18.0625 C 9.351562 -17.570312 11.300781 -16.941406 14.28125 -16.171875 C 17.257812 -15.398438 19.425781 -14.539062 20.78125 -13.59375 C 22.644531 -12.269531 23.578125 -10.421875 23.578125 -8.046875 C 23.578125 -5.085938 22.414062 -2.847656 20.09375 -1.328125 C 18.132812 -0.0664062 15.722656 0.5625 12.859375 0.5625 C 6.378906 0.5625 2.625 -1.90625 1.59375 -6.84375 L 5.15625 -6.84375 C 5.707031 -3.738281 8.273438 -2.1875 12.859375 -2.1875 C 16.128906 -2.1875 18.410156 -3.09375 19.703125 -4.90625 C 20.210938 -5.625 20.46875 -6.597656 20.46875 -7.828125 C 20.46875 -9.035156 20 -10.023438 19.0625 -10.796875 C 17.707031 -11.890625 15.140625 -12.894531 11.359375 -13.8125 Z M 11.359375 -13.8125 "></path></g></g></g><g fill="#faf6f6" fill-opacity="1"><g transform="translate(296.183838, 247.036637)"><g><path d="M 6.234375 0 L 3.21875 0 L 3.21875 -29.25 L 6.234375 -29.25 L 6.234375 -16.09375 L 19.53125 -16.09375 L 19.53125 -29.25 L 22.546875 -29.25 L 22.546875 0 L 19.53125 0 L 19.53125 -13.078125 L 6.234375 -13.078125 Z M 6.234375 0 "></path></g></g></g><g fill="#faf6f6" fill-opacity="1"><g transform="translate(341.861679, 247.036637)"><g><path d="M 20.609375 0 L 3.21875 0 L 3.21875 -29.25 L 20.609375 -29.25 L 20.609375 -26.453125 L 6.234375 -26.453125 L 6.234375 -16.046875 L 20.171875 -16.046875 L 20.171875 -13.203125 L 6.234375 -13.203125 L 6.234375 -2.796875 L 20.609375 -2.796875 Z M 20.609375 0 "></path></g></g></g><g fill="#faf6f6" fill-opacity="1"><g transform="translate(385.6046, 247.036637)"><g><path d="M 6.53125 -2.796875 L 23.140625 -2.796875 L 23.140625 0 L 1.078125 0 L 18.40625 -26.453125 L 1.984375 -26.453125 L 1.984375 -29.25 L 23.875 -29.25 Z M 6.53125 -2.796875 "></path></g></g></g></svg>